<?xml version="1.0" standalone="no"?>
<!DOCTYPE svg PUBLIC "-//W3C//DTD SVG 20010904//EN"
 "http://www.w3.org/TR/2001/REC-SVG-20010904/DTD/svg10.dtd">
<svg version="1.0" xmlns="http://www.w3.org/2000/svg"
 width="275.000000pt" height="296.000000pt" viewBox="0 0 275.000000 296.000000"
 preserveAspectRatio="xMidYMid meet">

<g transform="translate(0.000000,296.000000) scale(0.100000,-0.100000)"
fill="#000000" stroke="none">
<path d="M86 2876 c-21 -71 -20 -117 3 -196 38 -130 97 -227 178 -292 73 -59
77 -59 463 -67 220 -4 347 -10 335 -16 -34 -15 -157 -109 -211 -161 -174 -169
-272 -365 -295 -589 -7 -60 -15 -113 -18 -117 -3 -4 -62 -11 -131 -17 -104 -8
-136 -15 -191 -39 -125 -56 -209 -177 -209 -302 l0 -31 28 26 c62 59 129 95
175 95 91 0 169 -59 220 -168 28 -60 30 -74 31 -177 l1 -111 -43 -87 c-23 -47
-48 -92 -55 -99 -7 -7 -38 -47 -69 -88 -31 -41 -86 -107 -122 -145 l-65 -70
29 -3 c20 -2 43 7 77 31 26 18 80 55 118 82 155 108 236 176 379 319 138 139
205 246 256 416 20 64 23 93 21 224 -1 82 -4 153 -7 158 -4 5 -1 134 5 286 10
238 15 285 33 337 36 100 136 219 212 250 21 9 40 14 43 11 3 -2 -6 -47 -20
-98 -15 -51 -29 -109 -32 -128 -3 -19 -12 -62 -20 -95 -26 -113 -38 -400 -25
-619 7 -110 9 -226 6 -258 -15 -131 -85 -276 -191 -397 -31 -35 -189 -155
-283 -216 -9 -5 -48 -33 -86 -60 -39 -28 -91 -64 -116 -80 -25 -17 -49 -36
-53 -42 -4 -7 -12 -13 -17 -13 -18 0 -293 -195 -299 -212 -2 -7 -10 -19 -18
-26 -43 -43 40 -61 92 -20 33 26 273 148 291 148 7 0 25 7 41 15 125 64 501
125 695 112 166 -12 285 -26 380 -47 184 -40 380 -89 432 -109 26 -11 32 -8
75 31 130 119 211 180 366 276 11 6 59 31 107 54 l87 43 1 340 c0 467 -17 691
-69 915 -69 295 -123 440 -214 574 -93 139 -197 231 -315 280 -80 33 -139 44
-336 62 -185 16 -500 10 -1045 -21 -345 -20 -376 -20 -432 8 -64 31 -91 55
-137 121 l-40 57 -16 -55z m1382 -1326 c1 -432 0 -790 -2 -795 -3 -9 -303 -1
-313 8 -1 2 11 29 27 60 42 80 76 171 96 252 15 60 16 81 6 165 -29 231 1 798
51 970 38 130 39 130 107 126 l25 -1 3 -785z m247 760 c121 -10 167 -27 245
-88 169 -133 271 -327 258 -488 -4 -51 -9 -61 -39 -86 -82 -69 -209 -118 -303
-118 -81 0 -201 40 -253 85 -60 51 -63 72 -63 409 l0 296 23 0 c12 0 72 -5
132 -10z m525 -852 c1 -57 5 -161 9 -233 5 -71 7 -131 6 -133 -2 -2 -34 10
-72 26 -97 42 -162 55 -282 55 -106 0 -171 -14 -273 -57 -21 -9 -42 -16 -48
-16 -6 0 -10 77 -10 224 l0 225 43 -24 c23 -13 74 -36 112 -51 130 -51 316
-34 416 36 15 11 34 20 42 20 8 0 20 7 27 15 24 29 30 14 30 -87z m-238 -374
c71 -16 167 -62 221 -107 38 -30 46 -75 47 -255 l0 -143 -37 7 c-21 3 -63 14
-93 24 -91 29 -315 78 -455 100 -33 6 -75 12 -92 15 l-33 6 0 114 0 113 38 29
c46 35 96 59 187 89 84 28 123 29 217 8z"/>
</g>
</svg>
